<?xml version="1.0" encoding="utf-8"?>
<!-- Generator: Adobe Illustrator 24.0.2, SVG Export Plug-In . SVG Version: 6.00 Build 0)  -->
<svg version="1.1" id="Calque_1" xmlns="http://www.w3.org/2000/svg" xmlns:xlink="http://www.w3.org/1999/xlink" x="0px" y="0px"
	 viewBox="0 0 32 114" style="enable-background:new 0 0 32 114;" xml:space="preserve">
<style type="text/css">
	.st0{fill:#D9C6A0;}
</style>
<g>
	<path class="st0" d="M1.4,54.4c1.5-4.7,2.9-9.5,4.3-14.2c1.4-4.8,2.9-9.4,4.5-14.1c1.6-4.7,3.3-9.3,4.9-14l2.5-7l0.6-1.7L18.4,3
		l0-0.1l0.1-0.2c0.1-0.1,0.1-0.3,0.2-0.4c0.4-0.5,0.9-0.8,1.5-0.9c0.6-0.1,1.2,0.1,1.7,0.5C22.1,2,22.1,2,22.2,2.1l0.2,0.2l0.3,0.3
		L24,3.8c1.8,1.7,3.6,3.4,5.3,5.1l0.7,0.7c0.4,0.4,0.6,1,0.5,1.5c0,0.1,0,0.3-0.1,0.4l-0.1,0.2l-0.1,0.4L30,13.2l-1.2,3.5l-4.7,14.1
		c-1.5,4.7-3,9.4-4.5,14.1c-0.7,2.4-1.3,4.8-1.9,7.2c-0.3,1.2-0.6,2.4-1,3.6l-0.1,0.4c0,0.1,0,0,0,0.1l0,0l0.1,0.2l0.1,0.4l0.5,1.8
		c1.4,4.7,2.7,9.5,4,14.3c1.4,4.7,2.9,9.4,4.5,14.1l2.4,7l1.2,3.5l0.6,1.8l0.3,0.9l0.1,0.5c0.1,0.3,0.1,0.7,0.1,1.1
		c0,0.4-0.2,0.7-0.4,1c0,0.1-0.1,0.2-0.1,0.2l-0.1,0.1l-0.2,0.2c-0.2,0.2-0.4,0.5-0.6,0.7c-0.4,0.4-0.9,0.9-1.2,1.4l-2.3,2.9
		c-0.8,1-1.5,1.9-2.3,2.9l-0.6,0.7l-0.1,0.2c-0.1,0.1-0.2,0.2-0.3,0.3c-0.2,0.2-0.4,0.3-0.7,0.4c-0.5,0.2-1,0.1-1.5-0.1
		c-0.4-0.2-0.8-0.7-0.9-1.1l-4.9-14c-1.7-4.7-3.3-9.3-4.7-14c-1.5-4.7-2.8-9.5-4.2-14.2L3.4,62c-0.4-1.2-0.7-2.4-1.1-3.5l-0.6-1.8
		l-0.3-0.9l-0.1-0.2c0-0.1-0.1-0.2-0.1-0.4C1.2,54.9,1.3,54.7,1.4,54.4z M2.7,54.9c0,0.1,0,0.1,0,0.2c0,0,0,0.1,0,0.1l0.1,0.2
		L3,56.2L3.6,58c0.4,1.2,0.8,2.3,1.2,3.5l2.5,7c1.6,4.7,3.3,9.3,4.9,14c1.6,4.7,3,9.4,4.3,14.2l4.2,14.2c0.1,0.3,0.4,0.4,0.6,0.3
		c0,0,0.1,0,0.1-0.1c0,0,0,0,0.1-0.1l0.1-0.2L22,110c0.7-1,1.4-2,2.1-3.1l2-3.1c0.3-0.5,0.6-1.1,0.9-1.6c0.1-0.3,0.3-0.6,0.4-0.8
		l0.1-0.2l0.1-0.1c0,0,0,0,0,0c0,0-0.1,0.1-0.1,0.1c0,0,0,0.1,0,0.1l-0.1-0.4l-0.3-0.9l-0.5-1.8l-1-3.6l-1.9-7.2
		c-1.2-4.8-2.6-9.5-4.1-14.3c-1.5-4.7-3.1-9.4-4.6-14.1l-0.5-1.8L14.6,57l-0.1-0.2c0-0.1-0.1-0.3-0.1-0.4c0-0.3,0-0.6,0.1-0.9
		l0.1-0.4c0.4-1.2,0.8-2.3,1.2-3.5c0.9-2.3,1.8-4.6,2.5-7c1.5-4.7,3-9.4,4.5-14.1l4.3-14.2l1.1-3.5l0.3-0.9l0.1-0.4l0.1-0.2
		c0,0,0,0,0,0c0-0.1,0-0.1-0.1-0.2L28,10.4c-1.8-1.7-3.7-3.3-5.5-5l-1.4-1.3l-0.6-0.6c0,0,0,0,0,0c0,0,0,0,0,0l0,0l0,0l0,0.1
		l-0.1,0.4l-0.6,1.8L17.5,13c-1.5,4.7-3,9.4-4.6,14.1c-1.6,4.7-3.2,9.3-5,14C6.1,45.6,4.3,50.2,2.7,54.9z"/>
</g>
</svg>
