<?xml version="1.0" encoding="utf-8"?>
<!-- Generator: Adobe Illustrator 24.0.2, SVG Export Plug-In . SVG Version: 6.00 Build 0)  -->
<svg version="1.1" id="Calque_1" xmlns="http://www.w3.org/2000/svg" xmlns:xlink="http://www.w3.org/1999/xlink" x="0px" y="0px"
	 viewBox="0 0 32 114" style="enable-background:new 0 0 32 114;" xml:space="preserve">
<style type="text/css">
	.st0{fill:#D9C6A0;}
</style>
<g>
	<path class="st0" d="M28.9,54.9c-1.6-4.7-3.4-9.3-5.2-13.9c-1.8-4.6-3.4-9.3-5-14c-1.6-4.7-3.1-9.4-4.6-14.1l-2.3-7.1l-0.6-1.8
		l-0.1-0.4l0-0.1l0,0l0,0c0,0,0,0,0,0c0,0,0,0,0,0l-0.6,0.6L9.1,5.4c-1.8,1.7-3.7,3.3-5.5,5L3,10.9c0,0-0.1,0.1-0.1,0.2c0,0,0,0,0,0
		l0.1,0.2l0.1,0.4l0.3,0.9l1.1,3.5l4.3,14.2c1.4,4.7,2.9,9.4,4.5,14.1c0.8,2.3,1.7,4.6,2.5,7c0.4,1.2,0.8,2.3,1.2,3.5l0.1,0.4
		c0.1,0.2,0.1,0.6,0.1,0.9c0,0.1,0,0.3-0.1,0.4L17.1,57l-0.1,0.4l-0.5,1.8c-1.5,4.7-3.1,9.4-4.6,14.1C10.4,78,9,82.7,7.8,87.5
		l-1.9,7.2l-1,3.6l-0.5,1.8L4.2,101L4,101.4c0,0,0-0.1,0-0.1c0,0,0-0.1-0.1-0.1c0,0,0,0,0,0l0.1,0.1l0.1,0.2
		c0.2,0.3,0.3,0.5,0.4,0.8c0.3,0.6,0.6,1.1,0.9,1.6l2,3.1c0.7,1,1.4,2.1,2.1,3.1l0.5,0.8l0.1,0.2c0,0,0,0.1,0.1,0.1
		c0,0,0.1,0.1,0.1,0.1c0.2,0.1,0.5,0,0.6-0.3l4.2-14.2c1.4-4.7,2.8-9.5,4.3-14.2c1.6-4.7,3.3-9.3,4.9-14l2.5-7
		c0.4-1.2,0.8-2.3,1.2-3.5l0.6-1.8l0.3-0.9l0.1-0.2c0,0,0-0.1,0-0.1C29,55,29,54.9,28.9,54.9z M30.3,54.4c0.1,0.2,0.1,0.5,0.1,0.7
		c0,0.1,0,0.2-0.1,0.4l-0.1,0.2l-0.3,0.9l-0.6,1.8c-0.4,1.2-0.7,2.4-1.1,3.5l-2.1,7.1c-1.4,4.7-2.7,9.5-4.2,14.2
		c-1.5,4.7-3.1,9.4-4.7,14l-4.9,14c-0.1,0.4-0.5,0.9-0.9,1.1c-0.4,0.2-1,0.3-1.5,0.1c-0.2-0.1-0.5-0.2-0.7-0.4
		c-0.1-0.1-0.2-0.2-0.3-0.3l-0.1-0.2L8.3,111c-0.8-1-1.5-2-2.3-2.9l-2.3-2.9c-0.4-0.5-0.8-0.9-1.2-1.4c-0.2-0.2-0.4-0.4-0.6-0.7
		l-0.2-0.2l-0.1-0.1c0,0-0.1-0.1-0.1-0.2c-0.2-0.3-0.3-0.6-0.4-1c0-0.4,0-0.7,0.1-1.1l0.1-0.5l0.3-0.9l0.6-1.8l1.2-3.5l2.4-7
		c1.6-4.7,3.1-9.4,4.5-14.1c1.4-4.7,2.6-9.5,4-14.3l0.5-1.8l0.1-0.4l0.1-0.2l0,0c0,0,0,0,0-0.1l-0.1-0.4c-0.4-1.2-0.7-2.4-1-3.6
		c-0.6-2.4-1.2-4.8-1.9-7.2c-1.5-4.7-3-9.4-4.5-14.1L2.8,16.7l-1.2-3.5l-0.3-0.9l-0.1-0.4l-0.1-0.2c0-0.1-0.1-0.3-0.1-0.4
		C1,10.7,1.2,10.1,1.6,9.7L2.3,9c1.8-1.7,3.5-3.5,5.3-5.1L9,2.6l0.3-0.3l0.2-0.2C9.5,2,9.6,2,9.7,1.9c0.5-0.4,1.1-0.6,1.7-0.5
		c0.6,0.1,1.2,0.4,1.5,0.9c0.1,0.1,0.2,0.3,0.2,0.4l0.1,0.2l0,0.1l0.2,0.4L14,5.2l2.5,7c1.7,4.7,3.4,9.3,4.9,14
		c1.6,4.7,3.1,9.4,4.5,14.1C27.4,45,28.7,49.7,30.3,54.4z"/>
</g>
</svg>
