<svg xmlns="http://www.w3.org/2000/svg" width="2096.353" height="3306.294" viewBox="0 0 2096.353 3306.294">
  <g id="Lettreanim" transform="translate(90.228 -1020.307)" opacity="0.29">
    <text id="P" transform="matrix(0.951, 0.309, -0.309, 0.951, 72.5, 1256.5)" fill="#d9c6a0" stroke="#d9c6a0" stroke-width="0.1" font-size="219" font-family="Papyrus"><tspan x="0" y="0">P</tspan></text>
    <text id="A" transform="matrix(0.848, 0.53, -0.53, 0.848, 1584.5, 1323.5)" fill="#d9c6a0" stroke="#d9c6a0" stroke-width="0.1" font-size="131" font-family="Papyrus"><tspan x="0" y="0">A</tspan></text>
    <text id="S" transform="matrix(0.921, -0.391, 0.391, 0.921, 1681.5, 1719.5)" fill="#d9c6a0" stroke="#d9c6a0" stroke-width="0.1" font-size="78" font-family="Papyrus"><tspan x="0" y="0">S</tspan></text>
    <text id="S-2" data-name="S" transform="matrix(0.921, 0.391, -0.391, 0.921, 1001.148, 3906.877)" fill="#d9c6a0" stroke="#d9c6a0" stroke-width="0.1" font-size="131" font-family="Papyrus"><tspan x="0" y="0">S</tspan></text>
    <text id="S-3" data-name="S" transform="matrix(0.921, 0.391, -0.391, 0.921, 987.5, 2126.5)" fill="#d9c6a0" stroke="#d9c6a0" stroke-width="0.1" font-size="68" font-family="Papyrus"><tspan x="0" y="0">S</tspan></text>
    <text id="U" transform="matrix(0.848, 0.53, -0.53, 0.848, -26.5, 2253.5)" fill="#d9c6a0" stroke="#d9c6a0" stroke-width="0.1" font-size="231" font-family="Papyrus"><tspan x="0" y="0">U</tspan></text>
    <text id="Y" transform="translate(312.787 1634.137) rotate(-9)" fill="#d9c6a0" stroke="#d9c6a0" stroke-width="0.1" font-size="58" font-family="Papyrus"><tspan x="0" y="0">Y</tspan></text>
    <text id="Y-2" data-name="Y" transform="translate(839.5 2935.5) rotate(-9)" fill="#d9c6a0" stroke="#d9c6a0" stroke-width="0.1" font-size="110" font-family="Papyrus"><tspan x="0" y="0">Y</tspan></text>
    <text id="Y-3" data-name="Y" transform="translate(1745.5 3085.5) rotate(-9)" fill="#d9c6a0" stroke="#d9c6a0" stroke-width="0.1" font-size="287" font-family="Papyrus"><tspan x="0" y="0">Y</tspan></text>
    <text id="U-2" data-name="U" transform="matrix(0.848, 0.53, -0.53, 0.848, 1518.5, 3091.5)" fill="#d9c6a0" stroke="#d9c6a0" stroke-width="0.1" font-size="58" font-family="Papyrus"><tspan x="0" y="0">U</tspan></text>
    <text id="U-3" data-name="U" transform="matrix(0.588, -0.809, 0.809, 0.588, 1763.5, 4276.5)" fill="#d9c6a0" stroke="#d9c6a0" stroke-width="0.1" font-size="163" font-family="Papyrus"><tspan x="0" y="0">U</tspan></text>
    <text id="A-2" data-name="A" transform="matrix(0.946, 0.326, -0.326, 0.946, 266.92, 2971.602)" fill="#d9c6a0" stroke="#d9c6a0" stroke-width="0.1" font-size="85" font-family="Papyrus"><tspan x="0" y="0">A</tspan></text>
    <text id="A-3" data-name="A" transform="matrix(0.946, 0.326, -0.326, 0.946, 1459.5, 2391.5)" fill="#d9c6a0" stroke="#d9c6a0" stroke-width="0.1" font-size="34" font-family="Papyrus"><tspan x="0" y="0">A</tspan></text>
    <text id="P-2" data-name="P" transform="matrix(0.819, -0.574, 0.574, 0.819, 1770.5, 2111.5)" fill="#d9c6a0" stroke="#d9c6a0" stroke-width="0.1" font-size="100" font-family="Papyrus"><tspan x="0" y="0">P</tspan></text>
    <text id="R" transform="matrix(0.998, -0.07, 0.07, 0.998, 1608.014, 2564.074)" fill="#d9c6a0" stroke="#d9c6a0" stroke-width="0.1" font-size="100" font-family="Papyrus"><tspan x="0" y="0">R</tspan></text>
    <text id="R-2" data-name="R" transform="matrix(0.819, 0.574, -0.574, 0.819, 1758.383, 3869.225)" fill="#d9c6a0" stroke="#d9c6a0" stroke-width="0.1" font-size="50" font-family="Papyrus"><tspan x="0" y="0">R</tspan></text>
    <text id="R-3" data-name="R" transform="matrix(0.819, 0.574, -0.574, 0.819, 174.383, 1816.225)" fill="#d9c6a0" stroke="#d9c6a0" stroke-width="0.1" font-size="50" font-family="Papyrus"><tspan x="0" y="0">R</tspan></text>
    <text id="R-4" data-name="R" transform="matrix(0.819, 0.574, -0.574, 0.819, 1047.5, 1142.5)" fill="#d9c6a0" stroke="#d9c6a0" stroke-width="0.1" font-size="142" font-family="Papyrus"><tspan x="0" y="0">R</tspan></text>
    <text id="P-3" data-name="P" transform="matrix(0.819, -0.574, 0.574, 0.819, 288.5, 3784.5)" fill="#d9c6a0" stroke="#d9c6a0" stroke-width="0.1" font-size="302" font-family="Papyrus"><tspan x="0" y="0">P</tspan></text>
    <text id="P-4" data-name="P" transform="matrix(0.819, -0.574, 0.574, 0.819, 977.5, 3487.5)" fill="#d9c6a0" stroke="#d9c6a0" stroke-width="0.1" font-size="100" font-family="Papyrus"><tspan x="0" y="0">P</tspan></text>
  </g>
</svg>
