<svg xmlns="http://www.w3.org/2000/svg" xmlns:xlink="http://www.w3.org/1999/xlink" width="1950" height="1121" viewBox="0 0 1950 1121">
  <defs>
    <radialGradient id="radial-gradient" cx="0.5" cy="0.5" r="0.31" gradientTransform="translate(0 -0.049) scale(1 1.098)" gradientUnits="objectBoundingBox">
      <stop offset="0" stop-color="#fff"/>
      <stop offset="0.388" stop-color="#41c3dd"/>
      <stop offset="0.854" stop-color="#3abdda" stop-opacity="0"/>
      <stop offset="1" stop-color="#35b8d8" stop-opacity="0"/>
    </radialGradient>
  </defs>
  <g id="Particule" transform="translate(0 -1097)">
    <circle id="Ellipse_21" data-name="Ellipse 21" cx="39.5" cy="39.5" r="39.5" transform="translate(0 2139)" opacity="0.59" fill="url(#radial-gradient)"/>
    <circle id="Ellipse_32" data-name="Ellipse 32" cx="39.5" cy="39.5" r="39.5" transform="translate(1950 1176) rotate(180)" opacity="0.55" fill="url(#radial-gradient)"/>
    <circle id="Ellipse_46" data-name="Ellipse 46" cx="39.5" cy="39.5" r="39.5" transform="translate(1163 1562) rotate(180)" opacity="0.15" fill="url(#radial-gradient)"/>
    <circle id="Ellipse_27" data-name="Ellipse 27" cx="39.5" cy="39.5" r="39.5" transform="translate(98 2085)" opacity="0.2" fill="url(#radial-gradient)"/>
    <circle id="Ellipse_33" data-name="Ellipse 33" cx="39.5" cy="39.5" r="39.5" transform="translate(1852 1230) rotate(180)" opacity="0.55" fill="url(#radial-gradient)"/>
    <circle id="Ellipse_31" data-name="Ellipse 31" cx="62.5" cy="62.5" r="62.5" transform="translate(199 1730)" opacity="0.67" fill="url(#radial-gradient)"/>
    <circle id="Ellipse_34" data-name="Ellipse 34" cx="62.5" cy="62.5" r="62.5" transform="translate(1751 1585) rotate(180)" opacity="0.81" fill="url(#radial-gradient)"/>
    <circle id="Ellipse_22" data-name="Ellipse 22" cx="23.5" cy="23.5" r="23.5" transform="translate(130 1999)" opacity="0.55" fill="url(#radial-gradient)"/>
    <circle id="Ellipse_35" data-name="Ellipse 35" cx="23.5" cy="23.5" r="23.5" transform="translate(1820 1316) rotate(180)" fill="url(#radial-gradient)"/>
    <circle id="Ellipse_47" data-name="Ellipse 47" cx="23.5" cy="23.5" r="23.5" transform="translate(1283 1730) rotate(180)" opacity="0.55" fill="url(#radial-gradient)"/>
    <circle id="Ellipse_45" data-name="Ellipse 45" cx="23.5" cy="23.5" r="23.5" transform="translate(1147 1717) rotate(180)" opacity="0.67" fill="url(#radial-gradient)"/>
    <circle id="Ellipse_44" data-name="Ellipse 44" cx="23.5" cy="23.5" r="23.5" transform="translate(1509 1460) rotate(180)" opacity="0.67" fill="url(#radial-gradient)"/>
    <circle id="Ellipse_30" data-name="Ellipse 30" cx="23.5" cy="23.5" r="23.5" transform="translate(324 1881)" fill="url(#radial-gradient)"/>
    <circle id="Ellipse_28" data-name="Ellipse 28" cx="23.5" cy="23.5" r="23.5" transform="translate(79 2164)" fill="url(#radial-gradient)"/>
    <circle id="Ellipse_37" data-name="Ellipse 37" cx="23.5" cy="23.5" r="23.5" transform="translate(1871 1151) rotate(180)" fill="url(#radial-gradient)"/>
    <circle id="Ellipse_23" data-name="Ellipse 23" cx="93.5" cy="93.5" r="93.5" transform="translate(222 1937)" fill="url(#radial-gradient)"/>
    <circle id="Ellipse_38" data-name="Ellipse 38" cx="93.5" cy="93.5" r="93.5" transform="translate(1728 1378) rotate(180)" fill="url(#radial-gradient)"/>
    <circle id="Ellipse_42" data-name="Ellipse 42" cx="93.5" cy="93.5" r="93.5" transform="translate(1147 1937) rotate(180)" opacity="0.2" fill="url(#radial-gradient)"/>
    <circle id="Ellipse_41" data-name="Ellipse 41" cx="93.5" cy="93.5" r="93.5" transform="translate(1221 1503) rotate(180)" opacity="0.55" fill="url(#radial-gradient)"/>
    <circle id="Ellipse_40" data-name="Ellipse 40" cx="93.5" cy="93.5" r="93.5" transform="translate(1649 1710) rotate(180)" opacity="0.2" fill="url(#radial-gradient)"/>
    <circle id="Ellipse_26" data-name="Ellipse 26" cx="93.5" cy="93.5" r="93.5" transform="translate(237 1600)" opacity="0.2" fill="url(#radial-gradient)"/>
    <circle id="Ellipse_24" data-name="Ellipse 24" cx="39.5" cy="39.5" r="39.5" transform="translate(222 2099)" fill="url(#radial-gradient)"/>
    <circle id="Ellipse_39" data-name="Ellipse 39" cx="39.5" cy="39.5" r="39.5" transform="translate(1728 1216) rotate(180)" opacity="0.67" fill="url(#radial-gradient)"/>
    <circle id="Ellipse_29" data-name="Ellipse 29" cx="39.5" cy="39.5" r="39.5" transform="translate(170 1888)" opacity="0.67" fill="url(#radial-gradient)"/>
    <circle id="Ellipse_36" data-name="Ellipse 36" cx="39.5" cy="39.5" r="39.5" transform="translate(1780 1427) rotate(180)" fill="url(#radial-gradient)"/>
    <circle id="Ellipse_48" data-name="Ellipse 48" cx="39.5" cy="39.5" r="39.5" transform="translate(1362 1640) rotate(180)" opacity="0.2" fill="url(#radial-gradient)"/>
    <circle id="Ellipse_43" data-name="Ellipse 43" cx="39.5" cy="39.5" r="39.5" transform="translate(1362 1489) rotate(180)" opacity="0.38" fill="url(#radial-gradient)"/>
    <circle id="Ellipse_25" data-name="Ellipse 25" cx="39.5" cy="39.5" r="39.5" transform="translate(331 1708)" fill="url(#radial-gradient)"/>
  </g>
</svg>
